HIERARCHY
ROOT Hips
{
  OFFSET 17.3705 40.9002 -4.04143
  CHANNELS 6 Xposition Yposition Zposition Zrotation Xrotation Yrotation
  JOINT LeftHip
  {
    OFFSET 3.43 0 0
    CHANNELS 6 Xposition Yposition Zposition Zrotation Xrotation Yrotation
    JOINT LeftKnee
    {
      OFFSET 0 -18.47 0
      CHANNELS 6 Xposition Yposition Zposition Zrotation Xrotation Yrotation
      JOINT LeftAnkle
      {
        OFFSET 0 -17.95 0
        CHANNELS 6 Xposition Yposition Zposition Zrotation Xrotation Yrotation
        End Site
        {
          OFFSET 0 -3.12 0
        }
      }
    }
  }
  JOINT RightHip
  {
    OFFSET -3.43 0 0
    CHANNELS 6 Xposition Yposition Zposition Zrotation Xrotation Yrotation
    JOINT RightKnee
    {
      OFFSET 0 -18.47 0
      CHANNELS 6 Xposition Yposition Zposition Zrotation Xrotation Yrotation
      JOINT RightAnkle
      {
        OFFSET 0 -17.95 0
        CHANNELS 6 Xposition Yposition Zposition Zrotation Xrotation Yrotation
        End Site
        {
          OFFSET 0 -3.12 0
        }
      }
    }
  }
  JOINT Chest
  {
    OFFSET 0 4.57 0
    CHANNELS 6 Xposition Yposition Zposition Zrotation Xrotation Yrotation
    JOINT CS_BVH
    {
      OFFSET 0 6.57 0
      CHANNELS 6 Xposition Yposition Zposition Zrotation Xrotation Yrotation
      JOINT LeftCollar
      {
        OFFSET 1.06 4.19 1.76
        CHANNELS 6 Xposition Yposition Zposition Zrotation Xrotation Yrotation
        JOINT LeftShoulder
        {
          OFFSET 5.81 0 0
          CHANNELS 6 Xposition Yposition Zposition Zrotation Xrotation Yrotation
          JOINT LeftElbow
          {
            OFFSET 0 -12.08 0
            CHANNELS 6 Xposition Yposition Zposition Zrotation Xrotation Yrotation
            JOINT LeftWrist
            {
              OFFSET 0 -9.82 0
              CHANNELS 6 Xposition Yposition Zposition Zrotation Xrotation Yrotation
              End Site
              {
                OFFSET 0 -7.37 0
              }
            }
          }
        }
      }
      JOINT RightCollar
      {
        OFFSET -1.06 4.19 1.76
        CHANNELS 6 Xposition Yposition Zposition Zrotation Xrotation Yrotation
        JOINT RightShoulder
        {
          OFFSET -6.06 0 0
          CHANNELS 6 Xposition Yposition Zposition Zrotation Xrotation Yrotation
          JOINT RightElbow
          {
            OFFSET 0 -11.08 0
            CHANNELS 6 Xposition Yposition Zposition Zrotation Xrotation Yrotation
            JOINT RightWrist
            {
              OFFSET 0 -9.82 0
              CHANNELS 6 Xposition Yposition Zposition Zrotation Xrotation Yrotation
              End Site
              {
                OFFSET 0 -7.14001 0
              }
            }
          }
        }
      }
      JOINT Neck
      {
        OFFSET 0 4.05 0
        CHANNELS 6 Xposition Yposition Zposition Zrotation Xrotation Yrotation
        JOINT Head
        {
          OFFSET 0 5.19 0
          CHANNELS 6 Xposition Yposition Zposition Zrotation Xrotation Yrotation
          End Site
          {
            OFFSET 0 4.14001 0
          }
        }
      }
    }
  }
}
MOTION
Frames:	10
Frame Time:	0.0333333
0.0627522 41.0687 -10.2538 1.17185 -0.353388 -4.27671 3.43 9.12756e-010 -1.60032e-011 -0.421618 -1.88128 -1.35543 1.57372e-008 -18.47 1.10541e-007 -2.40798 17.9901 8.81051 1.5558e-008 -17.95 3.38894e-008 11.0307 -12.3476 -0.422995 -3.43 -9.12749e-010 1.60023e-011 -6.07937 0.241023 -0.796117 4.27853e-008 -18.47 -1.42709e-007 0.538212 14.782 7.92659 -2.59563e-008 -17.95 2.98131e-008 -6.18969 -7.77849 0.342432 -1.05168e-009 4.57 4.29798e-011 -1.37683 -0.551464 0.855101 -1.67976e-009 6.57 2.67812e-010 -0.231796 -1.09935 1.68322 1.06 4.19 1.76 -3.79081 -1.40148 -3.3243 5.81 -5.77685e-010 -2.42139e-010 15.6308 12.6363 -20.2668 -4.70036e-009 -12.08 6.73172e-010 23.1892 -40.4821 10.9192 -1.10605e-009 -9.82 -1.29618e-009 -2.71073 11.6521 -1.1723 -1.06 4.19 1.76 5.48313 -1.07734 7.66706 -6.06 -5.89036e-008 -4.70616e-010 -111.632 -64.2522 -54.7496 -7.10448e-009 -11.08 -5.62306e-011 -159.198 -65.6 -123.87 -1.10928e-009 -9.82 1.29577e-009 -8.77389 8.69492 1.35467 4.66962e-010 4.05 1.19922e-010 2.37422 -5.70091 -1.76458 3.38399e-009 5.19 -2.27068e-010 -2.58375 21.5333 -2.50093 
0.0489706 41.0501 -10.1868 1.50552 -0.713587 -4.41143 3.43 9.12756e-010 -1.60032e-011 -0.887617 -1.28825 -1.42488 1.57372e-008 -18.47 1.10541e-007 -2.2523 17.7519 8.92693 1.5558e-008 -17.95 3.38894e-008 11.1129 -12.5289 -0.42206 -3.43 -9.12749e-010 1.60023e-011 -6.52223 0.501015 -0.949073 4.27853e-008 -18.47 -1.42709e-007 0.665938 15.1075 8.37013 -2.59563e-008 -17.95 2.98131e-008 -6.1721 -7.77966 0.341402 -1.05168e-009 4.57 4.29798e-011 -1.52904 -0.470502 0.893585 -1.67976e-009 6.57 2.67812e-010 -0.409438 -0.93625 1.72654 1.06 4.19 1.76 -4.01236 -1.18009 -3.36681 5.81 -5.77685e-010 -2.42139e-010 15.501 13.7398 -19.7753 -4.70036e-009 -12.08 6.73172e-010 22.9686 -40.0734 10.7565 -1.10605e-009 -9.82 -1.29618e-009 -3.22223 11.6139 -1.24454 -1.06 4.19 1.76 5.40809 -0.843396 7.64685 -6.06 -5.89036e-008 -4.70616e-010 -111.04 -63.4865 -56.1154 -7.10448e-009 -11.08 -5.62306e-011 -160.141 -65.4815 -126.793 -1.10928e-009 -9.82 1.29577e-009 -9.58467 8.09799 1.44805 4.66962e-010 4.05 1.19922e-010 2.27057 -5.51457 -1.40735 3.38399e-009 5.19 -2.27068e-010 -2.52947 21.1517 -2.17567 
0.015189 41.0463 -10.1227 1.72901 -1.0928 -4.84913 3.43 9.12756e-010 -1.60032e-011 -1.12217 -0.681717 -1.30148 1.57372e-008 -18.47 1.10541e-007 -2.2405 17.5371 9.17222 1.5558e-008 -17.95 3.38894e-008 11.0224 -12.4415 -0.419974 -3.43 -9.12749e-010 1.60023e-011 -6.80884 0.743508 -1.02353 4.27853e-008 -18.47 -1.42709e-007 0.70606 15.3481 8.6863 -2.59563e-008 -17.95 2.98131e-008 -6.41348 -8.07043 0.356922 -1.05168e-009 4.57 4.29798e-011 -1.64385 -0.390408 0.965523 -1.67976e-009 6.57 2.67812e-010 -0.534502 -0.7741 1.83922 1.06 4.19 1.76 -4.15988 -0.963973 -3.19736 5.81 -5.77685e-010 -2.42139e-010 15.2567 14.9388 -19.1746 -4.70036e-009 -12.08 6.73172e-010 22.742 -39.4875 10.5034 -1.10605e-009 -9.82 -1.29618e-009 -3.52947 11.9245 -1.29861 -1.06 4.19 1.76 5.13629 -0.627372 7.54062 -6.06 -5.89036e-008 -4.70616e-010 -110.264 -63.7777 -55.9202 -7.10448e-009 -11.08 -5.62306e-011 -160.947 -65.6475 -125.469 -1.10928e-009 -9.82 1.29577e-009 -11.0468 9.25752 1.78181 4.66962e-010 4.05 1.19922e-010 2.17478 -5.29484 -1.19095 3.38399e-009 5.19 -2.27068e-010 -2.78455 20.8598 -1.95011 
-0.00273324 41.06 -10.0875 1.51456 -0.868553 -4.69917 3.43 9.12756e-010 -1.60032e-011 -0.843488 -0.862417 -1.24692 1.57372e-008 -18.47 1.10541e-007 -2.25316 17.577 9.01481 1.5558e-008 -17.95 3.38894e-008 11.0075 -12.394 -0.418301 -3.43 -9.12749e-010 1.60023e-011 -6.52932 0.741234 -0.932187 4.27853e-008 -18.47 -1.42709e-007 0.686535 15.1612 8.59307 -2.59563e-008 -17.95 2.98131e-008 -6.31237 -7.9447 0.360306 -1.05168e-009 4.57 4.29798e-011 -1.53853 -0.442454 0.874449 -1.67976e-009 6.57 2.67812e-010 -0.384008 -0.879143 1.66979 1.06 4.19 1.76 -4.13347 -1.10079 -3.3908 5.81 -5.77685e-010 -2.42139e-010 15.0586 16.353 -18.5823 -4.70036e-009 -12.08 6.73172e-010 22.2621 -38.7611 10.3473 -1.10605e-009 -9.82 -1.29618e-009 -3.60001 12.0137 -1.30514 -1.06 4.19 1.76 5.22361 -0.831249 6.70734 -6.06 -5.89036e-008 -4.70616e-010 -110.366 -64.8948 -56.3532 -7.10448e-009 -11.08 -5.62306e-011 -160.039 -65.3326 -127.304 -1.10928e-009 -9.82 1.29577e-009 -9.90526 7.65524 1.46753 4.66962e-010 4.05 1.19922e-010 2.17026 -5.34716 -1.61578 3.38399e-009 5.19 -2.27068e-010 -2.9275 20.7777 -2.06846 
-0.0229938 41.0436 -10.0409 1.58954 -0.732161 -5.03647 3.43 9.12756e-010 -1.60032e-011 -0.949701 -0.822286 -1.24611 1.57372e-008 -18.47 1.10541e-007 -2.1913 17.4456 9.23507 1.5558e-008 -17.95 3.38894e-008 11.0281 -12.4638 -0.418647 -3.43 -9.12749e-010 1.60023e-011 -6.62588 0.540476 -0.933254 4.27853e-008 -18.47 -1.42709e-007 0.754314 15.2622 8.718 -2.59563e-008 -17.95 2.98131e-008 -6.43682 -8.09259 0.358389 -1.05168e-009 4.57 4.29798e-011 -1.5805 -0.502577 0.882143 -1.67976e-009 6.57 2.67812e-010 -0.414723 -0.99792 1.68415 1.06 4.19 1.76 -4.02424 -1.2585 -3.37532 5.81 -5.77685e-010 -2.42139e-010 14.8276 17.9593 -18.2587 -4.70036e-009 -12.08 6.73172e-010 21.5957 -38.1311 10.3567 -1.10605e-009 -9.82 -1.29618e-009 -3.10906 11.9917 -1.24546 -1.06 4.19 1.76 5.16277 -0.988485 6.84152 -6.06 -5.89036e-008 -4.70616e-010 -110.398 -65.7169 -53.9837 -7.10448e-009 -11.08 -5.62306e-011 -159.462 -65.3627 -123.301 -1.10928e-009 -9.82 1.29577e-009 -10.5619 9.32358 1.70344 4.66962e-010 4.05 1.19922e-010 2.08069 -5.37255 -1.84514 3.38399e-009 5.19 -2.27068e-010 -2.64916 20.8877 -2.45649 
-0.0374765 41.0516 -9.98694 1.65549 -0.758231 -5.26481 3.43 9.12756e-010 -1.60032e-011 -1.06728 -0.743943 -1.2828 1.57372e-008 -18.47 1.10541e-007 -2.14016 17.551 9.38336 1.5558e-008 -17.95 3.38894e-008 10.9691 -12.3582 -0.423689 -3.43 -9.12749e-010 1.60023e-011 -6.75159 0.523065 -0.962359 4.27853e-008 -18.47 -1.42709e-007 0.807879 15.3652 8.9845 -2.59563e-008 -17.95 2.98131e-008 -6.35667 -8.00658 0.357085 -1.05168e-009 4.57 4.29798e-011 -1.58785 -0.514222 0.895732 -1.67976e-009 6.57 2.67812e-010 -0.407644 -1.02037 1.7058 1.06 4.19 1.76 -4.02507 -1.29196 -3.32908 5.81 -5.77685e-010 -2.42139e-010 14.6303 19.2532 -17.7892 -4.70036e-009 -12.08 6.73172e-010 21.1133 -37.3083 9.964 -1.10605e-009 -9.82 -1.29618e-009 -3.22975 12.3044 -1.27419 -1.06 4.19 1.76 5.12182 -1.01628 6.95286 -6.06 -5.89036e-008 -4.70616e-010 -111.045 -66.4935 -51.7106 -7.10448e-009 -11.08 -5.62306e-011 -158.186 -65.3082 -120.108 -1.10928e-009 -9.82 1.29577e-009 -10.3974 10.2998 1.75078 4.66962e-010 4.05 1.19922e-010 1.87458 -5.37202 -2.10114 3.38399e-009 5.19 -2.27068e-010 -1.95823 21.0576 -3.15187 
-0.07087 41.0483 -9.91693 1.55633 -1.00257 -5.8442 3.43 9.12756e-010 -1.60032e-011 -0.973964 -0.294368 -1.05256 1.57372e-008 -18.47 1.10541e-007 -2.18254 17.4953 9.68192 1.5558e-008 -17.95 3.38894e-008 10.9601 -12.3762 -0.430118 -3.43 -9.12749e-010 1.60023e-011 -6.67616 0.842249 -0.90513 4.27853e-008 -18.47 -1.42709e-007 0.793141 15.2533 9.39166 -2.59563e-008 -17.95 2.98131e-008 -6.52124 -8.16866 0.364531 -1.05168e-009 4.57 4.29798e-011 -1.56565 -0.485831 1.00698 -1.67976e-009 6.57 2.67812e-010 -0.371068 -0.962305 1.91584 1.06 4.19 1.76 -3.9119 -1.23549 -3.06947 5.81 -5.77685e-010 -2.42139e-010 14.2345 20.5573 -16.9368 -4.70036e-009 -12.08 6.73172e-010 21.0155 -36.8136 10.1397 -1.10605e-009 -9.82 -1.29618e-009 -3.60181 12.4654 -1.33189 -1.06 4.19 1.76 5.27756 -0.900902 7.23531 -6.06 -5.89036e-008 -4.70616e-010 -111.284 -66.8401 -50.0611 -7.10448e-009 -11.08 -5.62306e-011 -156.377 -65.4099 -119.333 -1.10928e-009 -9.82 1.29577e-009 -9.97994 10.2476 1.67127 4.66962e-010 4.05 1.19922e-010 1.54178 -5.84066 -2.02024 3.38399e-009 5.19 -2.27068e-010 -0.0818876 23.0897 -4.44879 
-0.0930673 41.0461 -9.87764 1.56769 -1.10113 -6.00156 3.43 9.12756e-010 -1.60032e-011 -1.02664 -0.213897 -1.04194 1.57372e-008 -18.47 1.10541e-007 -2.10935 17.5738 9.90771 1.5558e-008 -17.95 3.38894e-008 10.8488 -12.1503 -0.433309 -3.43 -9.12749e-010 1.60023e-011 -6.74105 0.916316 -0.959676 4.27853e-008 -18.47 -1.42709e-007 0.88101 15.3146 9.49172 -2.59563e-008 -17.95 2.98131e-008 -6.54109 -8.1999 0.368489 -1.05168e-009 4.57 4.29798e-011 -1.58324 -0.476548 1.06274 -1.67976e-009 6.57 2.67812e-010 -0.391483 -0.943275 2.02073 1.06 4.19 1.76 -3.74315 -1.22444 -2.86585 5.81 -5.77685e-010 -2.42139e-010 13.9975 21.4079 -16.3993 -4.70036e-009 -12.08 6.73172e-010 20.6769 -36.0869 10.0149 -1.10605e-009 -9.82 -1.29618e-009 -4.17635 12.9706 -1.42744 -1.06 4.19 1.76 4.81887 -0.918848 6.87778 -6.06 -5.89036e-008 -4.70616e-010 -109.593 -67.5839 -47.9024 -7.10448e-009 -11.08 -5.62306e-011 -155.847 -65.705 -116.966 -1.10928e-009 -9.82 1.29577e-009 -10.3175 10.295 1.73593 4.66962e-010 4.05 1.19922e-010 1.58472 -5.8422 -2.22017 3.38399e-009 5.19 -2.27068e-010 -0.0458442 23.31 -4.71409 
-0.09908 41.0124 -9.85047 1.63352 -0.920489 -6.17034 3.43 9.12756e-010 -1.60032e-011 -1.13634 -0.544767 -1.15342 1.57372e-008 -18.47 1.10541e-007 -2.11836 18.0039 10.2542 1.5558e-008 -17.95 3.38894e-008 10.8947 -12.3484 -0.435778 -3.43 -9.12749e-010 1.60023e-011 -6.86946 0.48294 -0.876031 4.27853e-008 -18.47 -1.42709e-007 0.980187 15.8348 9.74433 -2.59563e-008 -17.95 2.98131e-008 -6.35704 -8.04547 0.367236 -1.05168e-009 4.57 4.29798e-011 -1.64954 -0.538549 1.1172 -1.67976e-009 6.57 2.67812e-010 -0.431534 -1.06471 2.12492 1.06 4.19 1.76 -3.76223 -1.40206 -2.62563 5.81 -5.77685e-010 -2.42139e-010 13.829 22.2772 -15.7643 -4.70036e-009 -12.08 6.73172e-010 20.623 -35.7646 10.2782 -1.10605e-009 -9.82 -1.29618e-009 -4.26196 13.1657 -1.44515 -1.06 4.19 1.76 5.17169 -1.03406 7.16122 -6.06 -5.89036e-008 -4.70616e-010 -111.109 -67.2414 -49.4778 -7.10448e-009 -11.08 -5.62306e-011 -156.267 -65.6774 -117.016 -1.10928e-009 -9.82 1.29577e-009 -7.71517 10.8213 1.29377 4.66962e-010 4.05 1.19922e-010 1.68344 -5.81605 -2.44608 3.38399e-009 5.19 -2.27068e-010 0.0738926 23.0279 -5.11879 
-0.131945 41.009 -9.80108 1.50163 -1.03449 -6.12437 3.43 9.12756e-010 -1.60032e-011 -0.905962 -0.368801 -1.02352 1.57372e-008 -18.47 1.10541e-007 -2.21222 18.0924 10.0031 1.5558e-008 -17.95 3.38894e-008 11.0071 -12.5022 -0.437378 -3.43 -9.12749e-010 1.60023e-011 -6.72184 0.820061 -0.919603 4.27853e-008 -18.47 -1.42709e-007 1.02987 15.6341 9.67412 -2.59563e-008 -17.95 2.98131e-008 -6.66133 -8.36262 0.364871 -1.05168e-009 4.57 4.29798e-011 -1.57938 -0.532097 1.08913 -1.67976e-009 6.57 2.67812e-010 -0.358019 -1.05356 2.06782 1.06 4.19 1.76 -4.06741 -1.38208 -2.64264 5.81 -5.77685e-010 -2.42139e-010 14.0047 23.6063 -15.0982 -4.70036e-009 -12.08 6.73172e-010 21.3859 -36.3695 10.1262 -1.10605e-009 -9.82 -1.29618e-009 -2.47068 13.2912 -1.21923 -1.06 4.19 1.76 4.70652 -1.0718 7.01474 -6.06 -5.89036e-008 -4.70616e-010 -109.841 -67.2413 -49.2342 -7.10448e-009 -11.08 -5.62306e-011 -157.47 -64.8722 -119.488 -1.10928e-009 -9.82 1.29577e-009 -7.69056 11.4009 1.32068 4.66962e-010 4.05 1.19922e-010 1.50276 -5.68922 -2.74933 3.38399e-009 5.19 -2.27068e-010 0.588527 23.2615 -5.6846 
